<?xml version="1.0" encoding="utf-8"?>
<!-- Generator: Adobe Illustrator 21.1.0, SVG Export Plug-In . SVG Version: 6.00 Build 0)  -->
<svg version="1.1" id="Layer_1" xmlns="http://www.w3.org/2000/svg" xmlns:xlink="http://www.w3.org/1999/xlink" x="0px" y="0px"
	 viewBox="0 0 255.1 141.7" style="enable-background:new 0 0 255.1 141.7;" xml:space="preserve">
<style type="text/css">
	.st0{fill:#FFFFFF;}
	.st1{fill:#FBE5E6;}
	.st2{fill:#FBD2D2;}
	.st3{opacity:0.3;fill:url(#XMLID_24_);}
	.st4{fill:#45121D;}
	.st5{fill:#F58D92;}
	.st6{fill:#F3B3B3;}
	.st7{fill:#543838;}
	.st8{fill:#705857;}
	.st9{fill:#6B4D4D;}
	.st10{fill:#1B1B1B;}
	.st11{opacity:0.6;fill:#FFFFFF;}
	.st12{opacity:0.4;fill:url(#XMLID_25_);}
	.st13{fill:#F69D9F;}
	.st14{opacity:0.66;fill:#FFFFFF;}
	.st15{fill:#F37D83;}
	.st16{fill:#FFF2E2;}
	.st17{fill:#FFE8CC;}
	.st18{fill:#F8FCFF;}
	.st19{opacity:0.59;fill:url(#XMLID_27_);}
	.st20{opacity:0.59;fill:url(#XMLID_31_);}
	.st21{opacity:0.59;fill:url(#XMLID_32_);}
	.st22{opacity:0.59;fill:url(#XMLID_33_);}
	.st23{opacity:0.34;fill:url(#XMLID_34_);}
	.st24{opacity:0.34;fill:url(#XMLID_36_);}
	.st25{opacity:0.21;fill:#45121D;}
	.st26{fill:#F3757B;}
	.st27{fill:#EDEDED;}
	.st28{fill:#C4C4C3;}
	.st29{fill:#F7F7F7;}
	.st30{opacity:0.3;fill:url(#XMLID_37_);}
	.st31{fill:#353535;}
	.st32{fill:#BCE6F5;}
	.st33{fill:#F5919B;}
	.st34{fill:#FFD56E;}
	.st35{opacity:0.4;fill:url(#XMLID_38_);}
	.st36{fill:#FCC184;}
	.st37{fill:#F37B7D;}
	.st38{fill:#F6F29B;}
	.st39{fill:#8FC8ED;}
	.st40{fill:#C094C3;}
	.st41{fill:none;stroke:#FAA64B;stroke-miterlimit:10;}
	.st42{fill:#441F1F;}
</style>
<polygon id="XMLID_77_" class="st0" points="-172.9,-78.4 127.6,-227.6 428,-78.4 428,220.1 127.6,369.3 -172.9,220.1 "/>
<polygon id="XMLID_132_" class="st1" points="127.6,-227.6 127.6,70.5 -172.9,220.1 -172.9,-78.4 "/>
<polygon id="XMLID_134_" class="st2" points="127.6,-227.6 127.6,70.5 428,220.1 428,-78.4 "/>
<linearGradient id="XMLID_24_" gradientUnits="userSpaceOnUse" x1="-128.6975" y1="189.9125" x2="-57.0214" y2="189.9125">
	<stop  offset="0" style="stop-color:#000000"/>
	<stop  offset="1" style="stop-color:#FFFFFF;stop-opacity:0"/>
</linearGradient>
<polygon id="XMLID_21_" class="st3" points="-108,238.6 -57,182.1 -65.5,141.2 -128.7,155.6 "/>
<polygon id="XMLID_88_" class="st4" points="170.1,-117.4 170.1,-3.7 268.1,42.9 268.1,-67.8 "/>
<path id="XMLID_39_" class="st5" d="M268.2-67.9l-20.1-10.2c0,0-1.9,15.1,10.3,21.1c4.3,2.1,7.4,2.5,9.7,1.9"/>
<polygon id="XMLID_161_" class="st0" points="-172.9,-78.4 -165.3,-74.8 132.5,-225.1 127.6,-227.6 "/>
<polygon id="XMLID_162_" class="st0" points="127.6,-227.6 127.6,-222.6 420.4,-74.8 428,-78.4 "/>
<polygon id="XMLID_163_" class="st1" points="-172.9,210.6 -172.9,220.1 127.6,369.3 127.6,357.9 "/>
<polygon id="XMLID_179_" class="st2" points="428,210.6 428,220.1 127.6,369.3 127.6,357.9 "/>
<polygon id="XMLID_160_" class="st2" points="-172.9,-78.4 -165.3,-74.8 -165.3,223.9 -172.9,220.1 "/>
<polygon id="XMLID_164_" class="st6" points="428,-78.4 420.4,-74.8 420.4,223.9 428,220.1 "/>
<polygon id="XMLID_66_" class="st7" points="-165.3,141.2 -165.3,214.5 -111.1,240.8 -111.1,162.5 "/>
<polygon id="XMLID_81_" class="st8" points="-30.4,124.5 -111.4,163.1 -165.3,141.2 -79.6,103.7 "/>
<polygon id="XMLID_82_" class="st9" points="-30.4,127.2 -30.4,124.5 -111.2,162.7 -111.1,166.2 "/>
<polygon id="XMLID_83_" class="st9" points="-111.2,162.7 -111.1,240.8 -108,238.6 -108,161.5 "/>
<path id="XMLID_84_" class="st10" d="M-73.8,133.3v24.8c0,7.6,8.1,12.5,14.9,8.8l19.9-10.8c3.2-1.8,5.3-5.2,5.3-8.8v-23.8
	c0-7.5-7.8-12.3-14.5-9l-19.9,9.8C-71.6,126-73.8,129.5-73.8,133.3z"/>
<polygon id="XMLID_85_" class="st10" points="-57,157.3 -57,182.1 -45,174.8 -45,150.3 "/>
<polygon id="XMLID_86_" class="st11" points="-165.3,39.2 -165.3,94.2 127.6,-51.7 127.6,-101.2 "/>
<polygon id="XMLID_87_" class="st2" points="-165.3,22.1 -165.3,28.4 127.6,-113.1 127.6,-117.4 "/>
<polygon id="XMLID_89_" class="st2" points="-165.3,104.5 -165.3,110.7 127.6,-30.8 127.6,-35 "/>
<polygon id="XMLID_90_" class="st6" points="170.1,-117.4 165.2,-116.3 165.2,-0.8 170.1,-3.7 "/>
<polygon id="XMLID_91_" class="st0" points="165.2,-0.8 170.1,-3.7 268.1,42.9 263.2,46.2 "/>
<path id="XMLID_92_" class="st0" d="M263.2,46.2"/>
<linearGradient id="XMLID_25_" gradientUnits="userSpaceOnUse" x1="89.2912" y1="-61.6717" x2="66.6245" y2="116.6616">
	<stop  offset="0" style="stop-color:#000000"/>
	<stop  offset="1" style="stop-color:#FFFFFF;stop-opacity:0"/>
</linearGradient>
<polygon id="XMLID_4_" class="st12" points="62,-39.4 49.5,109.3 91.5,113.5 110.5,-62.1 "/>
<polygon id="XMLID_93_" class="st13" points="420.4,138.5 127.6,-2.3 127.6,70.5 420.4,216.3 "/>
<polygon id="XMLID_94_" class="st14" points="127.6,49.9 127.6,70.5 420.4,216.3 420.4,193.6 "/>
<path id="XMLID_9_" class="st13" d="M91.5,113.5l34.7,21.4c0,0,7.4,4.8,16.1,1.8c8.7-3,43.6-29.7,43.6-29.7s4-6.4-1.7-8.8
	c-5.6-2.4-33.5-16.3-33.5-16.3h-8.5L91.5,113.5z"/>
<path id="XMLID_6_" class="st15" d="M91.5,113.5c0,0,33.4,21.2,36.7,22.6s5,3.6,13.3,0.7l4.1-1.7c0,0-8,3.9-14.8-0.5
	c-6.8-4.4-34.7-21.2-34.7-21.2l-1.8-1.7L91.5,113.5z"/>
<polygon id="XMLID_1_" class="st16" points="65.5,-40.4 119.5,-66.4 150.6,81.9 96.1,113.5 "/>
<polygon id="XMLID_2_" class="st17" points="62,-39.4 65.5,-40.4 96.1,113.5 91.5,113.5 "/>
<polygon id="XMLID_3_" class="st0" points="62,-39.4 116.5,-66.4 119.5,-66.4 65.5,-40.4 "/>
<polygon id="XMLID_5_" class="st18" points="70.1,-36.3 96.1,92.7 143.4,66.7 117.5,-59.1 "/>
<linearGradient id="XMLID_27_" gradientUnits="userSpaceOnUse" x1="117.8203" y1="-64.4173" x2="101.5703" y2="24.8327">
	<stop  offset="0" style="stop-color:#C1D7E8"/>
	<stop  offset="1" style="stop-color:#FFFFFF;stop-opacity:0"/>
</linearGradient>
<polygon id="XMLID_7_" class="st19" points="102.7,-28 104.8,-52.9 117.5,-59.1 120.5,-44.5 117.5,-2.3 104.5,15.5 98,11 "/>
<linearGradient id="XMLID_31_" gradientUnits="userSpaceOnUse" x1="87.8063" y1="-45.1098" x2="80.5563" y2="12.3902">
	<stop  offset="0" style="stop-color:#C1D7E8"/>
	<stop  offset="1" style="stop-color:#FFFFFF;stop-opacity:0"/>
</linearGradient>
<polygon id="XMLID_8_" class="st20" points="94.7,-48.1 86.7,21.2 79.5,10 76.1,-6.7 80,-41 "/>
<polygon id="XMLID_11_" class="st0" points="168.5,-116.8 168.7,-2.3 174.2,0.5 174.2,-115.3 170.1,-117.4 "/>
<polygon id="XMLID_10_" class="st0" points="174.2,-61 268.1,-16.5 268.1,-11 171.4,-57 "/>
<path id="XMLID_12_" class="st5" d="M170.1-117.4c0,0-1.9,15.1,10.3,21.1s15-1.9,15.6-8L170.1-117.4z"/>
<path id="XMLID_40_" class="st5" d="M196.2-104.4c0,0-1.9,15.1,10.3,21.1s15-1.9,15.6-8L196.2-104.4z"/>
<path id="XMLID_41_" class="st5" d="M222-91.2c0,0-1.9,15.1,10.3,21.1s15-1.9,15.6-8L222-91.2z"/>
<linearGradient id="XMLID_32_" gradientUnits="userSpaceOnUse" x1="271.0303" y1="-12.3011" x2="251.9058" y2="-50.1893">
	<stop  offset="0" style="stop-color:#C1D7E8"/>
	<stop  offset="1" style="stop-color:#FFFFFF;stop-opacity:0"/>
</linearGradient>
<polygon id="XMLID_43_" class="st21" points="258.1,-21.8 268.1,-16.5 268.2,-28.8 255.9,-58.4 244,-52.9 "/>
<linearGradient id="XMLID_33_" gradientUnits="userSpaceOnUse" x1="271.0303" y1="47.1155" x2="251.9058" y2="9.2274">
	<stop  offset="0" style="stop-color:#C1D7E8"/>
	<stop  offset="1" style="stop-color:#FFFFFF;stop-opacity:0"/>
</linearGradient>
<polygon id="XMLID_44_" class="st22" points="258.1,37.6 268.1,42.9 268.2,30.6 255.9,1 244,6.5 "/>
<linearGradient id="XMLID_34_" gradientUnits="userSpaceOnUse" x1="241.8965" y1="36.6833" x2="208.2298" y2="-30.3167">
	<stop  offset="0" style="stop-color:#C1D7E8"/>
	<stop  offset="1" style="stop-color:#FFFFFF;stop-opacity:0"/>
</linearGradient>
<polygon id="XMLID_42_" class="st23" points="216.7,-33.4 247.9,33.3 224.1,21.9 193.8,-37.5 193.8,-46.4 216.7,-35 "/>
<linearGradient id="XMLID_36_" gradientUnits="userSpaceOnUse" x1="243.1536" y1="-23.2201" x2="209.4869" y2="-90.2201">
	<stop  offset="0" style="stop-color:#C1D7E8"/>
	<stop  offset="1" style="stop-color:#FFFFFF;stop-opacity:0"/>
</linearGradient>
<polygon id="XMLID_46_" class="st24" points="217.9,-93.3 249.2,-26.6 225.4,-38 195.1,-97.4 195.1,-106.3 217.9,-94.9 "/>
<polygon id="XMLID_45_" class="st16" points="388.5,46.2 388.5,200.4 309.5,160.7 309.5,7.2 "/>
<polygon id="XMLID_53_" class="st0" points="371.5,174.5 371.5,130.5 322.8,106.8 322.8,151.2 "/>
<polygon id="XMLID_47_" class="st1" points="322.8,106.8 322.8,151.2 327.1,148.6 327.1,108.9 "/>
<polygon id="XMLID_52_" class="st0" points="322.8,41.6 371.5,65.2 371.5,120 322.8,96.2 "/>
<polygon id="XMLID_48_" class="st2" points="371.5,174.5 322.8,151.2 327.1,148.6 371.5,169.5 "/>
<path id="XMLID_49_" class="st2" d="M322.8,109.8"/>
<polygon id="XMLID_50_" class="st1" points="322.8,41.6 322.8,96.2 327.1,96.2 327.1,46.2 "/>
<polygon id="XMLID_51_" class="st2" points="322.8,96.2 371.5,120 371.5,115 327.1,93.7 "/>
<polygon id="XMLID_54_" class="st25" points="309.5,7.2 311.5,7.2 390,46.2 390,199.5 388.5,200.4 388.5,46.6 "/>
<circle id="XMLID_55_" class="st26" cx="317.8" cy="101.1" r="4"/>
<polygon id="XMLID_126_" class="st0" points="-138.2,-26.6 -138.2,59.6 -67.2,25.7 -67.2,-61 "/>
<polygon id="XMLID_144_" class="st27" points="-125.2,93.6 -125.2,128.9 -70.5,103.9 -70.5,66.9 "/>
<polygon id="XMLID_148_" class="st28" points="-132.2,99.9 -125.2,93.6 -125.2,128.9 -132.2,122.9 "/>
<polygon id="XMLID_145_" class="st29" points="-147.1,118.6 -129.4,111.2 -129.4,138.6 -147.1,146.6 "/>
<polygon id="XMLID_146_" class="st27" points="-147.1,146.6 -160.2,139 -160.2,116.9 -147.1,118.6 "/>
<polygon id="XMLID_147_" class="st0" points="-129.4,111.2 -147.1,110.7 -160.2,116.9 -147.1,118.6 "/>
<polygon id="XMLID_149_" class="st10" points="-120.9,96.2 -120.9,122.7 -74.2,99.9 -74.2,72.6 "/>
<linearGradient id="XMLID_37_" gradientUnits="userSpaceOnUse" x1="-94.2927" y1="225.8634" x2="-31.2822" y2="225.8634">
	<stop  offset="0" style="stop-color:#000000"/>
	<stop  offset="1" style="stop-color:#FFFFFF;stop-opacity:0"/>
</linearGradient>
<path id="XMLID_23_" class="st30" d="M-94.3,231.3l24.5,11.7c0,0,7.3,1.8,7.3-2.2c0-3.9,31.2-19.3,31.2-19.3l-16.4-13.2L-94.3,231.3
	z"/>
<ellipse id="XMLID_30_" class="st31" cx="-51" cy="210.1" rx="4.8" ry="2.6"/>
<path id="XMLID_150_" class="st28" d="M-94.5,112.1c-0.5-0.8-1.3-0.8-2.1-0.4c-0.8,0.5-1.2,1.2-0.7,2c0.5,0.8,1.4,0.9,2.1,0.4
	C-94.4,113.8-94,113-94.5,112.1z"/>
<polygon id="XMLID_151_" class="st32" points="-134.8,-23 -134.8,6 -70.5,-24.5 -70.5,-52.9 "/>
<rect id="XMLID_165_" x="-95.9" y="196.8" class="st10" width="9.5" height="32.5"/>
<polygon id="XMLID_152_" class="st1" points="-133.9,10.1 -133.9,52.9 -107,39.6 -107,-1.8 "/>
<polygon id="XMLID_153_" class="st33" points="-103.5,-1.8 -70.5,-17.4 -70.5,13.2 -103.5,30.1 "/>
<polygon id="XMLID_143_" class="st34" points="-88.5,9.7 -51,-6.5 -51,46.2 -88.5,62.2 "/>
<polygon id="XMLID_157_" class="st31" points="-67.2,178.9 -97.5,193.9 -67.6,206.3 -38.5,188.2 -63,176.9 "/>
<rect id="XMLID_166_" x="-55.8" y="177.6" class="st31" width="9.5" height="32.5"/>
<path id="XMLID_154_" class="st10" d="M-71.2,185.2l32-18.6c3.9-2.3,8.8,0.5,8.8,5.1v19.6c0,2.1-1.1,4-2.9,5L-65.1,215
	c-3.9,2.3-8.8-0.5-8.8-5l-0.2-19.7C-74.2,188.2-73.1,186.2-71.2,185.2z"/>
<polygon id="XMLID_155_" class="st10" points="-69.8,215.5 -97.5,203.6 -97.5,193.9 -67.2,204.7 "/>
<rect id="XMLID_156_" x="-71.9" y="208.3" class="st10" width="9.5" height="32.5"/>
<linearGradient id="XMLID_38_" gradientUnits="userSpaceOnUse" x1="311.7067" y1="-9.4315" x2="398.9151" y2="-9.4315">
	<stop  offset="0" style="stop-color:#000000"/>
	<stop  offset="1" style="stop-color:#FFFFFF;stop-opacity:0"/>
</linearGradient>
<path id="XMLID_35_" class="st35" d="M397.1-11.8c-1,0-1.9,0.8-1.9,1.9c0,0.5,0.2,1,0.6,1.3c-3,5.2-14.8,20.8-42.1,10.9
	c-26.6-9.6-36.4-28.2-39-34.2c0.4-0.3,0.6-0.8,0.6-1.4c0-1-0.8-1.9-1.9-1.9s-1.9,0.8-1.9,1.9s0.8,1.9,1.9,1.9c0.1,0,0.2,0,0.3,0
	c0.7,1.6,1.9,4.1,3.7,7.1l-3.2,8.7l9.5-0.4c1.1,1.3,2.4,2.5,3.8,3.9l-1.4,10.8l10.4-3.7c1.4,0.9,2.9,1.9,4.5,2.8l2.8,10.9l8.5-5.6
	c0.3,0.1,0.5,0.2,0.8,0.3c1.8,0.6,3.5,1.2,5.1,1.6l5,11.5l8.3-10c2-0.1,3.8-0.3,5.5-0.7l10.4,7.8l0.9-12.9c4.3-3.1,6.9-6.7,8.1-8.8
	c0.1,0,0.3,0.1,0.4,0.1c1,0,1.9-0.8,1.9-1.9C398.9-11,398.1-11.8,397.1-11.8z"/>
<rect id="XMLID_159_" x="-39.9" y="189.4" class="st10" width="9.5" height="30.7"/>
<ellipse id="XMLID_26_" class="st10" cx="-91.2" cy="229.3" rx="4.8" ry="2.6"/>
<ellipse id="XMLID_28_" class="st10" cx="-67.2" cy="240.8" rx="4.8" ry="2.6"/>
<ellipse id="XMLID_29_" class="st10" cx="-35.2" cy="220.1" rx="4.8" ry="2.6"/>
<polygon id="XMLID_17_" class="st36" points="316.5,-27.3 323.2,-18.4 313.1,-18 "/>
<polygon id="XMLID_18_" class="st37" points="326.4,-15.1 335.9,-7.6 325,-3.7 "/>
<polygon id="XMLID_19_" class="st38" points="339.7,-5.3 342.7,6.2 351.5,0.5 "/>
<path id="XMLID_15_" class="st39" d="M356.9,2c0,0,8,2.5,13.9,1.6l-8.7,10.5L356.9,2z"/>
<path id="XMLID_20_" class="st40" d="M375.4,3c0,0,9.6-2,11.8-5.3l-0.9,13.5L375.4,3z"/>
<path id="XMLID_13_" class="st41" d="M312.2-36c0,0,7.5,24.8,40,36.5s43.5-12.8,43.5-12.8"/>
<circle id="XMLID_14_" class="st42" cx="312.2" cy="-35.6" r="1.9"/>
<circle id="XMLID_16_" class="st42" cx="395.7" cy="-12.3" r="1.9"/>
</svg>
